<svg width="28" height="30" viewBox="0 0 28 30" fill="none" xmlns="http://www.w3.org/2000/svg">
<path d="M25.6402 5.81997L16.3598 0.612272C14.9039 -0.204091 13.0961 -0.204091 11.6402 0.612272L2.35975 5.81997C0.903854 6.63633 0 8.15958 0 9.7923L0 20.2077C0 21.8418 0.903854 23.3637 2.35975 24.18L11.6402 29.3877C12.3675 29.7959 13.1837 30 14 30C14.8162 30 15.6325 29.7959 16.3598 29.3877L25.6402 24.18C27.0961 23.3637 28 21.8404 28 20.2077V9.7923C28 8.15823 27.0961 6.63633 25.6402 5.81997ZM24.7684 7.2878C25.0548 7.44864 25.3065 7.65138 25.5179 7.88656C25.4942 7.91224 25.4734 7.94062 25.4553 7.97171L22.7785 12.4779C22.5658 12.8347 22.036 12.8361 21.8232 12.4779L15.6881 2.19229L24.767 7.2878H24.7684ZM14.4783 26.4534C14.2656 26.8116 13.7358 26.8116 13.523 26.4534L10.6863 21.6782C11.6611 22.1148 12.7457 22.3581 13.8874 22.3581C15.1542 22.3581 16.35 22.058 17.4041 21.5269L14.4783 26.4521V26.4534ZM13.523 3.53983C13.7358 3.18301 14.2656 3.18301 14.477 3.53983L17.2553 8.19742C16.2374 7.7122 15.0944 7.43918 13.886 7.43918C12.8 7.43918 11.7654 7.66084 10.8282 8.05821L13.523 3.53983ZM7.9553 14.8986C7.9553 11.7197 10.6168 9.13273 13.8874 9.13273C17.1579 9.13273 19.8194 11.7197 19.8194 14.8986C19.8194 18.0776 17.1579 20.6645 13.8874 20.6645C10.6168 20.6645 7.9553 18.0776 7.9553 14.8986ZM3.23163 7.2878L12.3105 2.19229L6.17541 12.4779C5.96265 12.8347 5.43286 12.8347 5.2201 12.4779L2.54331 7.97171C2.52523 7.94062 2.50437 7.91224 2.48073 7.88656C2.69209 7.65138 2.94378 7.44729 3.23023 7.28645L3.23163 7.2878ZM3.23163 22.7136C2.31387 22.1986 1.74374 21.239 1.74374 20.2077V10.0113L12.3174 27.8118L3.23302 22.7136H3.23163ZM24.7684 22.7136L15.6839 27.8118L26.2576 10.0113V20.2077C26.2576 21.2376 25.6875 22.1972 24.7698 22.7136H24.7684Z" fill="white"/>
</svg> 